<svg class="main-svg" xmlns="http://www.w3.org/2000/svg" xmlns:xlink="http://www.w3.org/1999/xlink" width="800" height="500" style="" viewBox="0 0 800 500"><rect x="0" y="0" width="800" height="500" style="fill: rgb(255, 255, 255); fill-opacity: 1;"/><defs id="defs-e6732f"><g class="clips"><clipPath id="clipe6732fxyplot" class="plotclip"><rect width="640" height="360"/></clipPath><clipPath class="axesclip" id="clipe6732fx"><rect x="80" y="0" width="640" height="500"/></clipPath><clipPath class="axesclip" id="clipe6732fy"><rect x="0" y="60" width="800" height="360"/></clipPath><clipPath class="axesclip" id="clipe6732fxy"><rect x="80" y="60" width="640" height="360"/></clipPath></g><g class="gradients"/><g class="patterns"/></defs><g class="bglayer"><rect class="bg" x="80" y="60" width="640" height="360" style="fill: rgb(229, 236, 246); fill-opacity: 1; stroke-width: 0;"/></g><g class="layer-below"><g class="imagelayer"/><g class="shapelayer"/></g><g class="cartesianlayer"><g class="subplot xy"><g class="layer-subplot"><g class="shapelayer"/><g class="imagelayer"/></g><g class="gridlayer"><g class="x"><path class="xgrid crisp" transform="translate(150.92000000000002,0)" d="M0,60v360" style="stroke: rgb(255, 255, 255); stroke-opacity: 1; stroke-width: 1px;"/><path class="xgrid crisp" transform="translate(228.6,0)" d="M0,60v360" style="stroke: rgb(255, 255, 255); stroke-opacity: 1; stroke-width: 1px;"/><path class="xgrid crisp" transform="translate(305.44,0)" d="M0,60v360" style="stroke: rgb(255, 255, 255); stroke-opacity: 1; stroke-width: 1px;"/><path class="xgrid crisp" transform="translate(382.27,0)" d="M0,60v360" style="stroke: rgb(255, 255, 255); stroke-opacity: 1; stroke-width: 1px;"/><path class="xgrid crisp" transform="translate(459.95,0)" d="M0,60v360" style="stroke: rgb(255, 255, 255); stroke-opacity: 1; stroke-width: 1px;"/><path class="xgrid crisp" transform="translate(537.63,0)" d="M0,60v360" style="stroke: rgb(255, 255, 255); stroke-opacity: 1; stroke-width: 1px;"/><path class="xgrid crisp" transform="translate(613.61,0)" d="M0,60v360" style="stroke: rgb(255, 255, 255); stroke-opacity: 1; stroke-width: 1px;"/><path class="xgrid crisp" transform="translate(690.45,0)" d="M0,60v360" style="stroke: rgb(255, 255, 255); stroke-opacity: 1; stroke-width: 1px;"/></g><g class="y"><path class="ygrid crisp" transform="translate(0,364.48)" d="M80,0h640" style="stroke: rgb(255, 255, 255); stroke-opacity: 1; stroke-width: 1px;"/><path class="ygrid crisp" transform="translate(0,323.39)" d="M80,0h640" style="stroke: rgb(255, 255, 255); stroke-opacity: 1; stroke-width: 1px;"/><path class="ygrid crisp" transform="translate(0,282.3)" d="M80,0h640" style="stroke: rgb(255, 255, 255); stroke-opacity: 1; stroke-width: 1px;"/><path class="ygrid crisp" transform="translate(0,241.21)" d="M80,0h640" style="stroke: rgb(255, 255, 255); stroke-opacity: 1; stroke-width: 1px;"/><path class="ygrid crisp" transform="translate(0,200.12)" d="M80,0h640" style="stroke: rgb(255, 255, 255); stroke-opacity: 1; stroke-width: 1px;"/><path class="ygrid crisp" transform="translate(0,159.03)" d="M80,0h640" style="stroke: rgb(255, 255, 255); stroke-opacity: 1; stroke-width: 1px;"/><path class="ygrid crisp" transform="translate(0,117.94)" d="M80,0h640" style="stroke: rgb(255, 255, 255); stroke-opacity: 1; stroke-width: 1px;"/><path class="ygrid crisp" transform="translate(0,76.85)" d="M80,0h640" style="stroke: rgb(255, 255, 255); stroke-opacity: 1; stroke-width: 1px;"/></g></g><g class="zerolinelayer"><path class="yzl zl crisp" transform="translate(0,405.57)" d="M80,0h640" style="stroke: rgb(255, 255, 255); stroke-opacity: 1; stroke-width: 2px;"/></g><path class="xlines-below"/><path class="ylines-below"/><g class="overlines-below"/><g class="xaxislayer-below"/><g class="yaxislayer-below"/><g class="overaxes-below"/><g class="plot" transform="translate(80,60)" clip-path="url(#clipe6732fxyplot)"><g class="scatterlayer mlayer"><g class="trace scatter traced689bf" style="stroke-miterlimit: 2; opacity: 0.5;"><g class="fills"/><g class="errorbars"/><g class="lines"><path class="js-line" d="M0,35.06L0.84,18.81L1.69,111.8L2.53,116.61L3.38,146.87L4.22,220.59L5.07,97.55L6.75,67.94L7.6,74.63L8.44,92.86L9.29,181.42L10.13,196.93L10.98,96.63L11.82,87.6L12.66,115.09L14.35,145.52L15.2,165.52L16.04,230.54L16.89,120.05L17.73,98.58L18.58,117.59L19.42,112.92L20.26,144.23L21.95,223.02L22.8,131.74L23.64,130.39L24.49,113.58L25.33,117.63L26.17,166.51L27.02,184.25L27.86,231.97L28.71,146.28L29.55,161.05L30.4,100.73L31.24,169.54L32.08,109.8L32.93,166.88L33.77,256.47L34.62,117.58L35.46,104.74L36.31,79.18L37.15,84.15L37.99,98.88L38.84,125.26L39.68,200.03L40.53,94.16L41.37,91.85L42.22,61.19L43.06,114.88L43.91,68.48L44.75,135.98L45.59,228.47L46.44,81.12L48.13,90.99L48.97,99.59L49.82,87.78L50.66,153.5L51.5,205.98L52.35,97.38L53.19,75.73L54.04,100.55L54.88,92.22L55.73,108L56.57,141.22L57.41,210.3L59.95,84.31L60.79,82.05L61.64,67.52L62.48,122.42L63.32,206.17L64.17,138.8L65.01,86.63L65.86,84.72L66.7,119.5L67.55,99.02L69.23,275.28L70.08,108.7L70.92,117.69L71.77,50.05L72.61,185.97L73.46,175.48L74.3,166.04L75.15,251.22L75.99,47.84L76.83,77.72L78.52,50.73L79.37,101.16L81.06,218.05L81.9,50.28L82.74,52.36L83.59,66.11L85.28,119.35L86.12,208.79L86.97,280.05L87.81,78.08L89.5,34.91L90.34,43.92L92.03,136.7L92.88,221.94L94.56,18L95.41,18.16L96.25,36.6L97.1,255.17L97.94,192.36L98.79,240.11L99.63,62.64L100.47,44.4L102.16,62.32L103.01,66.83L104.7,232.61L105.54,69.61L106.39,69.38L107.23,56.94L108.07,50.17L108.92,87.17L110.61,257.45L111.45,138.11L113.98,63.7L114.83,105.64L116.52,240.83L117.36,68.55L118.21,49.99L119.05,72.12L119.89,109.55L120.74,63.59L122.43,245.93L123.27,70.28L124.96,38.48L125.8,60.64L128.34,259.22L129.18,126.4L130.03,54.58L130.87,108.77L131.72,51.06L132.56,114.19L134.25,245L135.09,73.96L136.78,30.93L137.63,27.55L140.16,273.97L141,197.14L142.69,319.88L143.54,304.02L144.38,224.52L145.22,241.56L146.07,286.83L146.91,214.77L148.6,294.18L149.45,220.89L151.13,239.15L151.98,268.49L153.67,76.46L154.51,100.8L155.36,89.52L156.2,100.45L157.89,257.87L158.73,78.8L159.58,93.54L160.42,62.27L161.27,55.09L162.11,104L163.8,243.24L164.64,84.06L165.49,71.21L166.33,92.73L167.18,82.79L168.02,112.03L169.71,244.94L170.55,125.74L171.4,135.73L172.24,108.39L173.09,96.08L173.93,104.78L175.62,275.33L176.46,138.34L177.31,123.22L178.15,79.31L179,101.14L179.84,90.93L181.53,292.36L182.37,234.61L184.06,125.28L184.91,151.78L185.75,123.98L186.6,172.23L187.44,278.34L188.28,137.92L189.97,121.8L190.82,137.86L191.66,152.01L192.51,234.12L193.35,308.49L194.2,244.94L195.04,167.54L195.88,166.04L196.73,151.5L197.57,153.65L199.26,266.89L200.11,139.74L200.95,122.67L201.79,123.38L203.48,186.76L204.33,188.94L205.17,273.77L206.02,141.55L206.86,185.52L207.7,133.62L208.55,150.08L209.39,185.57L210.24,205.45L211.08,262.99L211.93,161.46L212.77,174.58L213.61,187.73L214.46,224.92L216.99,297.08L217.84,247.17L218.68,243.99L219.53,230.6L220.37,240.88L221.21,236L222.06,247.59L222.9,321.01L224.59,237.82L225.44,228.21L227.12,248.33L227.97,243.17L228.81,252.83L229.66,211.7L230.5,213.48L231.35,187.66L232.19,209.08L233.03,257.02L233.88,222.25L234.72,251.78L235.57,290.63L236.41,240.46L238.1,200.24L238.94,206.05L240.63,243.71L241.48,188.62L242.32,188.49L243.17,167.06L244.01,166.44L244.85,171.34L246.54,234.14L247.39,161.73L248.23,199.25L249.08,191.59L249.92,197.55L250.77,278.49L251.61,257.16L252.45,262.2L254.14,157.77L254.99,137.89L256.68,148.37L257.52,157.32L258.36,262.45L259.21,185.86L260.9,151.6L261.74,146.82L262.59,153.96L263.43,175.74L264.27,225.51L265.12,133.35L266.81,114.34L267.65,189.85L268.5,169.12L269.34,177.49L270.18,282.53L271.03,143.07L272.72,94.71L273.56,98.7L274.41,108.64L275.25,148.54L276.09,219.76L276.94,197.74L278.63,81.66L279.47,161.63L281.16,192.07L282.01,250L283.69,119.87L284.54,102.04L285.38,211.68L286.23,94.54L287.92,260.91L288.76,154.51L289.6,120.27L290.45,121.96L291.29,131.6L292.14,92.39L292.98,126.28L293.83,191.47L295.51,70.17L296.36,56.3L298.05,77.63L298.89,157.51L299.74,225.95L300.58,121.89L301.42,122.03L302.27,212.62L303.11,128.82L303.96,120.65L305.65,258.3L306.49,159.34L307.34,128.8L308.18,156.08L309.02,176.61L309.87,162.44L310.71,165.66L311.56,213.06L312.4,116.38L313.25,159.78L314.09,118.93L314.93,138.41L315.78,127.79L316.62,151.78L317.47,214.53L318.31,138.59L320,107.65L320.84,109.65L323.38,235.25L324.22,155.82L325.91,111.65L326.75,109.56L327.6,115.02L328.44,175.46L329.29,223.58L330.13,122.79L331.82,84.13L332.66,97.89L333.51,117.12L334.35,163.71L335.2,231.46L336.04,115.41L336.89,103.59L337.73,79.78L339.42,108.44L340.26,173.04L341.11,212.52L341.95,119.15L343.64,63.02L344.49,86.06L347.02,235.59L347.86,138.79L348.71,123.95L349.55,187.14L350.4,97.13L351.24,111.67L352.93,222.93L353.77,106.61L355.46,70.44L356.31,156.26L357.15,116.48L357.99,207.09L358.84,231.08L359.68,100.45L361.37,96.06L362.22,89.01L363.06,87.81L363.91,150.12L364.75,203.62L365.59,87.03L367.28,63.73L368.13,85.72L368.97,94.81L369.82,148.3L370.66,214.16L371.5,97.15L373.19,73.71L374.04,100.38L374.88,115.03L375.73,200.25L376.57,247.45L377.41,138.38L379.1,92.87L379.95,116.52L380.79,94.21L381.64,246.3L382.48,255.07L383.32,118.25L385.01,123.8L385.86,153.03L386.7,113.3L387.55,183.18L388.39,259.31L389.23,146.51L390.08,123.55L390.92,132.76L392.61,149.34L393.46,189.1L394.3,256.5L395.15,137.09L396.83,153.62L397.68,135.53L399.37,187.41L400.21,277.92L401.06,120.55L401.9,113.63L402.74,110.1L403.59,131.18L405.28,174.65L406.12,257.27L407.81,132.1L408.65,131.89L410.34,147.08L411.19,190.3L412.03,251.1L412.88,141.77L413.72,137.37L414.56,148.7L416.25,147.49L417.1,198.35L417.94,263.54L418.79,164.34L419.63,174.48L420.47,121.38L421.32,164.61L422.16,151.12L423.85,285.73L424.7,144.84L425.54,143.44L426.39,129.94L427.23,163.79L428.07,141.78L429.76,273.8L430.61,174.17L431.45,190.66L432.3,150.03L433.14,165.82L433.98,162.24L435.67,289.84L436.52,193.89L437.36,154.47L438.21,151.74L439.05,158.39L439.89,155.55L441.58,284.62L442.43,156.48L444.12,189.28L444.96,212.7L445.8,199.49L446.65,237.84L447.49,282.96L448.34,242.36L450.03,259.65L450.87,304.94L451.72,317.31L452.56,315.67L453.4,329.02L454.25,268.49L455.09,280.52L455.94,259.14L457.63,303.82L458.47,280.23L459.31,300.58L460.16,253.04L461.85,223.33L462.69,238.62L463.54,236.35L464.38,262.51L465.22,283.68L466.07,224.65L466.91,232.77L467.76,218.69L468.6,219.22L469.45,226.38L471.13,305.83L471.98,223.22L472.82,257.31L473.67,201.12L474.51,228.65L475.36,215.68L477.04,289.19L477.89,217.81L478.73,219.05L479.58,230.96L481.27,246.34L482.11,251.22L482.96,286.05L483.8,241.84L484.64,250.63L485.49,248.03L486.33,218.3L487.18,227.31L488.87,342L489.71,341.11L490.55,340.79L491.4,338.17L493.09,332.73L493.93,336.28L494.78,334L495.62,322.53L498.15,233.71L499,221.46L499.84,222.96L500.69,239.89L502.37,188L503.22,165.79L504.06,179.81L504.91,207.2L506.6,264.54L507.44,201.04L509.13,174.55L509.97,215.58L510.82,201.41L511.66,240.8L512.51,284.86L513.35,209.39L514.2,237.92L515.04,192.52L515.88,241.72L516.73,228.88L518.42,302.31L519.26,213.58L520.11,190.05L520.95,193.61L521.79,200.61L522.64,186.41L524.33,288.48L525.17,197.5L526.86,161.65L527.7,176.97L528.55,153.52L529.39,259.82L530.24,267.14L531.08,157.97L532.77,118.28L533.61,161.22L534.46,275.98L535.3,229.89L536.99,311.98L537.84,239.12L538.68,237.19L539.53,203.45L540.37,186.23L541.21,265.65L542.06,297.26L542.9,189.18L544.59,166.14L545.44,166.08L546.28,162.64L547.12,196.06L547.97,247.3L548.81,169.26L550.5,137.94L551.35,158.52L552.19,153.63L553.03,194.61L553.88,248.16L554.72,152.18L555.57,139.56L556.41,112.45L557.26,191.08L558.94,227.03L559.79,261.98L560.63,160.73L561.48,219.05L562.32,184.75L564.01,168.55L564.85,203.74L565.7,201.98L566.54,156.01L567.39,187.45L568.23,133.25L569.08,223.48L569.92,178.61L571.61,258.62L572.45,195.33L574.99,134.16L575.83,153.14L576.68,248.16L577.52,252.2L578.36,258.35L579.21,208.22L580.05,158.84L580.9,186.55L581.74,118.67L582.59,153.3L583.43,196.49L585.12,76.61L585.96,59.58L586.81,215.26L587.65,122.4L588.5,181.55L589.34,234.91L590.18,118.33L591.87,67.2L592.72,73.04L593.56,69.57L594.41,141.2L595.25,188.64L596.09,82.28L597.78,59.83L598.63,78.82L599.47,96.92L600.32,137.9L601.16,204.03L602.01,169.16L603.69,80.83L604.54,92.04L605.38,92.53L606.23,136.61L607.07,213.74L607.92,147.26L608.76,123.07L610.45,145.56L611.29,95.58L612.14,135.77L612.98,265.63L613.83,152.77L614.67,141.52L615.51,93.6L616.36,133.16L617.2,121.1L618.05,150.69L618.89,230.57L619.74,126.54L620.58,166.93L621.42,209.36L622.27,141.39L623.96,151.22L624.8,201.77L626.49,122.45L627.34,111.86L628.18,115.13L629.02,111.89L630.71,235.28L631.56,140.96L632.4,166.17L633.25,164.55L636.62,240L637.47,145.88L638.31,139.13L639.16,126.07L640,130.5" style="vector-effect: non-scaling-stroke; fill: none; stroke: rgb(99, 110, 250); stroke-opacity: 1; stroke-width: 2px; opacity: 1;"/></g><g class="points"/><g class="text"/></g></g></g><g class="overplot"/><path class="xlines-above crisp" d="M0,0" style="fill: none;"/><path class="ylines-above crisp" d="M0,0" style="fill: none;"/><g class="overlines-above"/><g class="xaxislayer-above"><g class="xtick"><text text-anchor="middle" x="0" y="433" transform="translate(150.92000000000002,0)" style="font-family: 'Open Sans', verdana, arial, sans-serif; font-size: 12px; fill: rgb(42, 63, 95); fill-opacity: 1; white-space: pre; opacity: 1;">Oct 2019</text></g><g class="xtick"><text text-anchor="middle" x="0" y="433" style="font-family: 'Open Sans', verdana, arial, sans-serif; font-size: 12px; fill: rgb(42, 63, 95); fill-opacity: 1; white-space: pre; opacity: 1;" transform="translate(228.6,0)">Jan 2020</text></g><g class="xtick"><text text-anchor="middle" x="0" y="433" style="font-family: 'Open Sans', verdana, arial, sans-serif; font-size: 12px; fill: rgb(42, 63, 95); fill-opacity: 1; white-space: pre; opacity: 1;" transform="translate(305.44,0)">Apr 2020</text></g><g class="xtick"><text text-anchor="middle" x="0" y="433" style="font-family: 'Open Sans', verdana, arial, sans-serif; font-size: 12px; fill: rgb(42, 63, 95); fill-opacity: 1; white-space: pre; opacity: 1;" transform="translate(382.27,0)">Jul 2020</text></g><g class="xtick"><text text-anchor="middle" x="0" y="433" style="font-family: 'Open Sans', verdana, arial, sans-serif; font-size: 12px; fill: rgb(42, 63, 95); fill-opacity: 1; white-space: pre; opacity: 1;" transform="translate(459.95,0)">Oct 2020</text></g><g class="xtick"><text text-anchor="middle" x="0" y="433" style="font-family: 'Open Sans', verdana, arial, sans-serif; font-size: 12px; fill: rgb(42, 63, 95); fill-opacity: 1; white-space: pre; opacity: 1;" transform="translate(537.63,0)">Jan 2021</text></g><g class="xtick"><text text-anchor="middle" x="0" y="433" style="font-family: 'Open Sans', verdana, arial, sans-serif; font-size: 12px; fill: rgb(42, 63, 95); fill-opacity: 1; white-space: pre; opacity: 1;" transform="translate(613.61,0)">Apr 2021</text></g><g class="xtick"><text text-anchor="middle" x="0" y="433" style="font-family: 'Open Sans', verdana, arial, sans-serif; font-size: 12px; fill: rgb(42, 63, 95); fill-opacity: 1; white-space: pre; opacity: 1;" transform="translate(690.45,0)">Jul 2021</text></g></g><g class="yaxislayer-above"><g class="ytick"><text text-anchor="end" x="79" y="4.199999999999999" transform="translate(0,405.57)" style="font-family: 'Open Sans', verdana, arial, sans-serif; font-size: 12px; fill: rgb(42, 63, 95); fill-opacity: 1; white-space: pre; opacity: 1;">0</text></g><g class="ytick"><text text-anchor="end" x="79" y="4.199999999999999" style="font-family: 'Open Sans', verdana, arial, sans-serif; font-size: 12px; fill: rgb(42, 63, 95); fill-opacity: 1; white-space: pre; opacity: 1;" transform="translate(0,364.48)">10k</text></g><g class="ytick"><text text-anchor="end" x="79" y="4.199999999999999" style="font-family: 'Open Sans', verdana, arial, sans-serif; font-size: 12px; fill: rgb(42, 63, 95); fill-opacity: 1; white-space: pre; opacity: 1;" transform="translate(0,323.39)">20k</text></g><g class="ytick"><text text-anchor="end" x="79" y="4.199999999999999" style="font-family: 'Open Sans', verdana, arial, sans-serif; font-size: 12px; fill: rgb(42, 63, 95); fill-opacity: 1; white-space: pre; opacity: 1;" transform="translate(0,282.3)">30k</text></g><g class="ytick"><text text-anchor="end" x="79" y="4.199999999999999" style="font-family: 'Open Sans', verdana, arial, sans-serif; font-size: 12px; fill: rgb(42, 63, 95); fill-opacity: 1; white-space: pre; opacity: 1;" transform="translate(0,241.21)">40k</text></g><g class="ytick"><text text-anchor="end" x="79" y="4.199999999999999" style="font-family: 'Open Sans', verdana, arial, sans-serif; font-size: 12px; fill: rgb(42, 63, 95); fill-opacity: 1; white-space: pre; opacity: 1;" transform="translate(0,200.12)">50k</text></g><g class="ytick"><text text-anchor="end" x="79" y="4.199999999999999" style="font-family: 'Open Sans', verdana, arial, sans-serif; font-size: 12px; fill: rgb(42, 63, 95); fill-opacity: 1; white-space: pre; opacity: 1;" transform="translate(0,159.03)">60k</text></g><g class="ytick"><text text-anchor="end" x="79" y="4.199999999999999" style="font-family: 'Open Sans', verdana, arial, sans-serif; font-size: 12px; fill: rgb(42, 63, 95); fill-opacity: 1; white-space: pre; opacity: 1;" transform="translate(0,117.94)">70k</text></g><g class="ytick"><text text-anchor="end" x="79" y="4.199999999999999" style="font-family: 'Open Sans', verdana, arial, sans-serif; font-size: 12px; fill: rgb(42, 63, 95); fill-opacity: 1; white-space: pre; opacity: 1;" transform="translate(0,76.85)">80k</text></g></g><g class="overaxes-above"/></g></g><g class="polarlayer"/><g class="ternarylayer"/><g class="geolayer"/><g class="funnelarealayer"/><g class="pielayer"/><g class="iciclelayer"/><g class="treemaplayer"/><g class="sunburstlayer"/><g class="glimages"/><defs id="topdefs-e6732f"><g class="clips"/></defs><g class="layer-above"><g class="imagelayer"/><g class="shapelayer"><path data-index="0" fill-rule="evenodd" d="M291.93,420H339.21V60H291.93Z" clip-path="url(#clipe6732fx)" style="opacity: 0.25; stroke: rgb(0, 0, 0); stroke-opacity: 0; fill: rgb(0, 128, 0); fill-opacity: 1; stroke-width: 0px;"/><path data-index="1" fill-rule="evenodd" d="M524.12,420H627.97V60H524.12Z" clip-path="url(#clipe6732fx)" style="opacity: 0.25; stroke: rgb(0, 0, 0); stroke-opacity: 0; fill: rgb(0, 128, 0); fill-opacity: 1; stroke-width: 0px;"/></g></g><g class="infolayer"><g class="g-gtitle"><text class="gtitle" x="40" y="30" text-anchor="start" dy="0em" style="font-family: 'Open Sans', verdana, arial, sans-serif; font-size: 17px; fill: rgb(42, 63, 95); opacity: 1; font-weight: normal; white-space: pre;">Bikers drop during lockdown</text></g><g class="g-xtitle"><text class="xtitle" x="400" y="460.8" text-anchor="middle" style="font-family: 'Open Sans', verdana, arial, sans-serif; font-size: 14px; fill: rgb(42, 63, 95); opacity: 1; font-weight: normal; white-space: pre;">date</text></g><g class="g-ytitle"><text class="ytitle" transform="rotate(-90,31.840625000000003,240)" x="31.840625000000003" y="240" text-anchor="middle" style="font-family: 'Open Sans', verdana, arial, sans-serif; font-size: 14px; fill: rgb(42, 63, 95); opacity: 1; font-weight: normal; white-space: pre;">bike</text></g><g class="annotation" data-index="0" style="opacity: 1;"><g class="annotation-text-g" transform="rotate(0,333.43,69.5)"><g class="cursor-pointer" transform="translate(292,60)"><rect class="bg" x="0.5" y="0.5" width="82" height="18" style="stroke-width: 1px; stroke: rgb(0, 0, 0); stroke-opacity: 0; fill: rgb(0, 0, 0); fill-opacity: 0;"/><text class="annotation-text" text-anchor="middle" x="41.46875" y="14" style="font-family: 'Open Sans', verdana, arial, sans-serif; font-size: 12px; fill: rgb(42, 63, 95); fill-opacity: 1; white-space: pre;">1st lockdown</text></g></g></g><g class="annotation" data-index="1" style="opacity: 1;"><g class="annotation-text-g" transform="rotate(0,567.62,69.5)"><g class="cursor-pointer" transform="translate(524,60)"><rect class="bg" x="0.5" y="0.5" width="86" height="18" style="stroke-width: 1px; stroke: rgb(0, 0, 0); stroke-opacity: 0; fill: rgb(0, 0, 0); fill-opacity: 0;"/><text class="annotation-text" text-anchor="middle" x="43.515625" y="14" style="font-family: 'Open Sans', verdana, arial, sans-serif; font-size: 12px; fill: rgb(42, 63, 95); fill-opacity: 1; white-space: pre;">2nd lockdown</text></g></g></g></g></svg>